<svg xmlns="http://www.w3.org/2000/svg" version="1.1" xmlns:xlink="http://www.w3.org/1999/xlink" xmlns:svgjs="http://svgjs.dev/svgjs" width="128" height="128" viewBox="0 0 128 128"><g transform="matrix(0.8046875,0,0,0.8046875,12.612792253521128,12.612792253521128)"><svg viewBox="0 0 142 142" data-background-color="#fefbf6" preserveAspectRatio="xMidYMid meet" height="128" width="128" xmlns="http://www.w3.org/2000/svg" xmlns:xlink="http://www.w3.org/1999/xlink"><g id="tight-bounds" transform="matrix(1,0,0,1,-0.15550000000000352,-0.15550000000000352)"><svg viewBox="0 0 142.31066447748242 142.31066447748242" height="142.31066447748242" width="142.31066447748242"><g><svg></svg></g><g><svg viewBox="0 0 142.31066447748242 142.31066447748242" height="142.31066447748242" width="142.31066447748242"><g><path d="M0 71.155c0-39.298 31.857-71.155 71.155-71.155 39.298 0 71.155 31.857 71.156 71.155 0 39.298-31.857 71.155-71.156 71.156-39.298 0-71.155-31.857-71.155-71.156zM71.155 134.886c35.197 0 63.731-28.533 63.731-63.731 0-35.197-28.533-63.731-63.731-63.73-35.197 0-63.731 28.533-63.73 63.73 0 35.197 28.533 63.731 63.73 63.731z" data-fill-palette-color="tertiary" fill="#29231d" stroke="transparent"></path><ellipse rx="68.30911894919156" ry="68.30911894919156" cx="71.15533223874121" cy="71.15533223874121" fill="#29231d" stroke="transparent" stroke-width="0" fill-opacity="1" data-fill-palette-color="tertiary"></ellipse></g><g transform="matrix(1,0,0,1,42.46564076984335,29.989108276746492)"><svg viewBox="0 0 57.37938293779572 82.33244792398943" height="82.33244792398943" width="57.37938293779572"><g><svg viewBox="0 0 57.37938293779572 82.33244792398943" height="82.33244792398943" width="57.37938293779572"><g><svg viewBox="0 0 57.37938293779572 82.33244792398943" height="82.33244792398943" width="57.37938293779572"><g id="textblocktransform"><svg viewBox="0 0 57.37938293779572 82.33244792398943" height="82.33244792398943" width="57.37938293779572" id="textblock"><g><svg viewBox="0 0 57.37938293779572 82.33244792398943" height="82.33244792398943" width="57.37938293779572"><g transform="matrix(1,0,0,1,0,0)"><svg width="57.37938293779572" viewBox="4.7 -32.05 22.650000000000002 32.5" height="82.33244792398943" data-palette-color="#fefbf6"><path d="M8.7-32.05L8.5-10 8.65 0 4.7 0 4.85-9.65 4.7-32.05 8.7-32.05ZM26.45-32.05L13.45-17Q20.1-8.4 27.35-0.85L27.35-0.85 27.3-0.35Q25.8 0.1 23.55 0.45L23.55 0.45 23.05 0.2Q15.15-8.75 9.25-16.8L9.25-16.8 9.25-17.1 19.95-29.25 21.95-32.05 26.45-32.05Z" opacity="1" transform="matrix(1,0,0,1,0,0)" fill="#fefbf6" class="wordmark-text-0" data-fill-palette-color="quaternary" id="text-0"></path></svg></g></svg></g></svg></g></svg></g><g></g></svg></g></svg></g></svg></g><defs></defs></svg><rect width="142.31066447748242" height="142.31066447748242" fill="none" stroke="none" visibility="hidden"></rect></g></svg></g></svg>